{
  "songs": {
    "critterGarden": {
      "bpm": 100,
      "beatsPerBar": 4,
      "bars": 8,
      "grid": 0.25,
      "stems": [
        {
          "name": "bass",
          "sound": "cgBass",
          "gain": 0.6,
          "repeat": true,
          "notes": [
            { "beat": 0, "len": 2, "midi": 36, "vel": 0.75 },
            { "beat": 2, "len": 2, "midi": 43, "vel": 0.61 },
            { "beat": 4, "len": 2, "midi": 33, "vel": 0.75 },
            { "beat": 6, "len": 2, "midi": 40, "vel": 0.61 },
            { "beat": 8, "len": 2, "midi": 41, "vel": 0.75 },
            { "beat": 10, "len": 2, "midi": 48, "vel": 0.61 },
            { "beat": 12, "len": 2, "midi": 43, "vel": 0.75 },
            { "beat": 14, "len": 2, "midi": 50, "vel": 0.61 }
          ]
        },
        {
          "name": "marimba",
          "sound": "cgMarimba",
          "gain": 0.5,
          "repeat": true,
          "notes": [
            { "beat": 0, "len": 0.5, "midi": 72, "vel": 0.52 },
            { "beat": 0.5, "len": 0.5, "midi": 76, "vel": 0.52 },
            { "beat": 1, "len": 0.5, "midi": 79, "vel": 0.52 },
            { "beat": 1.5, "len": 0.5, "midi": 76, "vel": 0.52 },
            { "beat": 2, "len": 0.5, "midi": 72, "vel": 0.52 },
            { "beat": 2.5, "len": 0.5, "midi": 76, "vel": 0.52 },
            { "beat": 3, "len": 0.5, "midi": 79, "vel": 0.52 },
            { "beat": 3.5, "len": 0.5, "midi": 76, "vel": 0.52 },
            { "beat": 4, "len": 0.5, "midi": 69, "vel": 0.52 },
            { "beat": 4.5, "len": 0.5, "midi": 72, "vel": 0.52 },
            { "beat": 5, "len": 0.5, "midi": 76, "vel": 0.52 },
            { "beat": 5.5, "len": 0.5, "midi": 72, "vel": 0.52 },
            { "beat": 6, "len": 0.5, "midi": 69, "vel": 0.52 },
            { "beat": 6.5, "len": 0.5, "midi": 72, "vel": 0.52 },
            { "beat": 7, "len": 0.5, "midi": 76, "vel": 0.52 },
            { "beat": 7.5, "len": 0.5, "midi": 72, "vel": 0.52 },
            { "beat": 8, "len": 0.5, "midi": 65, "vel": 0.52 },
            { "beat": 8.5, "len": 0.5, "midi": 69, "vel": 0.52 },
            { "beat": 9, "len": 0.5, "midi": 72, "vel": 0.52 },
            { "beat": 9.5, "len": 0.5, "midi": 69, "vel": 0.52 },
            { "beat": 10, "len": 0.5, "midi": 65, "vel": 0.52 },
            { "beat": 10.5, "len": 0.5, "midi": 69, "vel": 0.52 },
            { "beat": 11, "len": 0.5, "midi": 72, "vel": 0.52 },
            { "beat": 11.5, "len": 0.5, "midi": 69, "vel": 0.52 },
            { "beat": 12, "len": 0.5, "midi": 67, "vel": 0.52 },
            { "beat": 12.5, "len": 0.5, "midi": 71, "vel": 0.52 },
            { "beat": 13, "len": 0.5, "midi": 74, "vel": 0.52 },
            { "beat": 13.5, "len": 0.5, "midi": 71, "vel": 0.52 },
            { "beat": 14, "len": 0.5, "midi": 67, "vel": 0.52 },
            { "beat": 14.5, "len": 0.5, "midi": 71, "vel": 0.52 },
            { "beat": 15, "len": 0.5, "midi": 74, "vel": 0.52 },
            { "beat": 15.5, "len": 0.5, "midi": 71, "vel": 0.52 }
          ]
        },
        {
          "name": "pad",
          "sound": "cgPad",
          "gain": 0.4,
          "repeat": true,
          "notes": [
            { "beat": 0, "len": 4, "midi": 60, "vel": 0.39 },
            { "beat": 0, "len": 4, "midi": 64, "vel": 0.39 },
            { "beat": 0, "len": 4, "midi": 67, "vel": 0.39 },
            { "beat": 4, "len": 4, "midi": 57, "vel": 0.39 },
            { "beat": 4, "len": 4, "midi": 60, "vel": 0.39 },
            { "beat": 4, "len": 4, "midi": 64, "vel": 0.39 },
            { "beat": 8, "len": 4, "midi": 53, "vel": 0.39 },
            { "beat": 8, "len": 4, "midi": 57, "vel": 0.39 },
            { "beat": 8, "len": 4, "midi": 60, "vel": 0.39 },
            { "beat": 12, "len": 4, "midi": 55, "vel": 0.39 },
            { "beat": 12, "len": 4, "midi": 59, "vel": 0.39 },
            { "beat": 12, "len": 4, "midi": 62, "vel": 0.39 }
          ]
        },
        {
          "name": "flute",
          "sound": "cgFlute",
          "gain": 0.5,
          "notes": [
            { "beat": 0, "len": 1, "midi": 72, "vel": 0.58 },
            { "beat": 1, "len": 1, "midi": 76, "vel": 0.58 },
            { "beat": 2, "len": 1, "midi": 79, "vel": 0.58 },
            { "beat": 3, "len": 1, "midi": 76, "vel": 0.58 },
            { "beat": 4, "len": 1, "midi": 77, "vel": 0.58 },
            { "beat": 5, "len": 1, "midi": 76, "vel": 0.58 },
            { "beat": 6, "len": 1, "midi": 72, "vel": 0.58 },
            { "beat": 7, "len": 1, "midi": 69, "vel": 0.58 },
            { "beat": 8, "len": 1, "midi": 69, "vel": 0.58 },
            { "beat": 9, "len": 1, "midi": 72, "vel": 0.58 },
            { "beat": 10, "len": 1, "midi": 77, "vel": 0.58 },
            { "beat": 11, "len": 1, "midi": 72, "vel": 0.58 },
            { "beat": 12, "len": 1, "midi": 74, "vel": 0.58 },
            { "beat": 13, "len": 1, "midi": 71, "vel": 0.58 },
            { "beat": 14, "len": 1, "midi": 67, "vel": 0.58 },
            { "beat": 15, "len": 1, "midi": 74, "vel": 0.58 },
            { "beat": 16, "len": 1, "midi": 76, "vel": 0.58 },
            { "beat": 17, "len": 1, "midi": 79, "vel": 0.58 },
            { "beat": 18, "len": 1, "midi": 84, "vel": 0.58 },
            { "beat": 19, "len": 1, "midi": 79, "vel": 0.58 },
            { "beat": 20, "len": 1, "midi": 81, "vel": 0.58 },
            { "beat": 21, "len": 1, "midi": 79, "vel": 0.58 },
            { "beat": 22, "len": 1, "midi": 76, "vel": 0.58 },
            { "beat": 23, "len": 1, "midi": 72, "vel": 0.58 },
            { "beat": 24, "len": 1, "midi": 77, "vel": 0.58 },
            { "beat": 25, "len": 1, "midi": 81, "vel": 0.58 },
            { "beat": 26, "len": 1, "midi": 84, "vel": 0.58 },
            { "beat": 27, "len": 1, "midi": 81, "vel": 0.58 },
            { "beat": 28, "len": 1, "midi": 79, "vel": 0.58 },
            { "beat": 29, "len": 1, "midi": 74, "vel": 0.58 },
            { "beat": 30, "len": 1, "midi": 71, "vel": 0.58 },
            { "beat": 31, "len": 1, "midi": 67, "vel": 0.58 }
          ]
        },
        {
          "name": "bells",
          "sound": "cgBells",
          "gain": 0.45,
          "repeat": true,
          "notes": [
            { "beat": 0, "len": 1, "midi": 91, "vel": 0.44 },
            { "beat": 4, "len": 1, "midi": 88, "vel": 0.44 },
            { "beat": 8, "len": 1, "midi": 84, "vel": 0.44 },
            { "beat": 12, "len": 1, "midi": 86, "vel": 0.44 }
          ]
        },
        {
          "name": "shaker",
          "sound": "cgShaker",
          "gain": 0.5,
          "repeat": true,
          "notes": [
            { "beat": 0, "len": 0.25, "midi": 60, "vel": 0.41 },
            { "beat": 0.5, "len": 0.25, "midi": 60, "vel": 0.3 },
            { "beat": 1, "len": 0.25, "midi": 60, "vel": 0.41 },
            { "beat": 1.5, "len": 0.25, "midi": 60, "vel": 0.3 },
            { "beat": 2, "len": 0.25, "midi": 60, "vel": 0.41 },
            { "beat": 2.5, "len": 0.25, "midi": 60, "vel": 0.3 },
            { "beat": 3, "len": 0.25, "midi": 60, "vel": 0.41 },
            { "beat": 3.5, "len": 0.25, "midi": 60, "vel": 0.3 }
          ]
        },
        {
          "name": "kick",
          "sound": "cgKick",
          "gain": 0.55,
          "repeat": true,
          "notes": [
            { "beat": 0, "len": 0.25, "midi": 36, "vel": 0.79 },
            { "beat": 2, "len": 0.25, "midi": 36, "vel": 0.71 }
          ]
        },
        {
          "name": "lead",
          "sound": "cgLead",
          "gain": 0.55,
          "repeat": true,
          "notes": [
            { "beat": 0, "len": 2, "midi": 79, "vel": 0.66 },
            { "beat": 2, "len": 2, "midi": 76, "vel": 0.63 },
            { "beat": 4, "len": 2, "midi": 76, "vel": 0.66 },
            { "beat": 6, "len": 2, "midi": 72, "vel": 0.63 },
            { "beat": 8, "len": 2, "midi": 72, "vel": 0.66 },
            { "beat": 10, "len": 2, "midi": 69, "vel": 0.63 },
            { "beat": 12, "len": 2, "midi": 74, "vel": 0.66 },
            { "beat": 14, "len": 2, "midi": 71, "vel": 0.63 }
          ]
        }
      ],
      "masterLevel": 0.35,
      "fadeSeconds": 1.5,
      "vibeDocs": {
        "calm": "Idle garden — round bass, soft pad, a little marimba and the occasional bell. Lobby / waiting.",
        "lively": "Critters are out — adds the flute melody and a shaker pulse over the bass and marimba.",
        "playful": "Bouncy folk romp — marimba + flute + shaker forward with a light kick. Mid-energy, social.",
        "triumph": "Big happy moment — every layer up, kick and bright synth lead driving. Win / climax."
      },
      "intensity": {
        "calm": {
          "bass": 0.7,
          "pad": 0.35,
          "marimba": 0.3,
          "bells": 0.4
        },
        "lively": {
          "bass": 0.65,
          "marimba": 0.5,
          "pad": 0.25,
          "flute": 0.5,
          "bells": 0.4,
          "shaker": 0.5
        },
        "playful": {
          "bass": 0.6,
          "marimba": 0.55,
          "flute": 0.45,
          "bells": 0.45,
          "shaker": 0.55,
          "kick": 0.4
        },
        "triumph": {
          "bass": 0.6,
          "marimba": 0.5,
          "pad": 0.3,
          "flute": 0.5,
          "bells": 0.5,
          "shaker": 0.5,
          "kick": 0.6,
          "lead": 0.6
        }
      }
    }
  }
}
